<?xml version="1.0" standalone="no"?><!DOCTYPE svg PUBLIC "-//W3C//DTD SVG 1.1//EN" "http://www.w3.org/Graphics/SVG/1.1/DTD/svg11.dtd"><svg t="1724138419304" class="icon" viewBox="0 0 1393 1024" version="1.1" xmlns="http://www.w3.org/2000/svg" p-id="2136" xmlns:xlink="http://www.w3.org/1999/xlink" width="43.53125" height="32"><path d="M613.006803 909.061224c-14.628571 45.278912 10.44898 93.344218 55.727891 107.97279 45.278912 13.931973 93.344218-10.44898 107.972789-55.727892l269.583673-840.097959c13.931973-44.582313-10.44898-93.344218-55.727891-107.972789-45.278912-13.931973-93.344218 10.44898-107.972789 55.727891zM647.140136 277.246259c75.232653 0.696599 137.229932-59.907483 138.623129-135.140137C786.459864 66.176871 726.552381 4.179592 650.623129 3.482993 574.693878 2.089796 512.696599 62.693878 512 138.623129c-1.393197 75.232653 59.210884 137.229932 135.140136 138.62313zM1251.091156 277.246259c75.929252 0.696599 137.926531-59.907483 138.62313-135.140137C1391.107483 66.176871 1330.503401 4.179592 1254.57415 3.482993 1179.341497 2.089796 1117.344218 62.693878 1115.95102 138.623129c-0.696599 75.232653 59.210884 137.229932 135.140136 138.62313zM544.043537 595.591837c75.929252 0.696599 137.926531-59.210884 139.319728-135.140136 0.696599-75.232653-59.907483-137.229932-135.140136-138.62313-75.929252-0.696599-137.926531 59.210884-138.623129 135.140136-1.393197 75.232653 59.210884 137.229932 134.443537 138.62313zM1152.17415 321.828571c-75.929252-0.696599-137.926531 59.907483-138.62313 135.140136-1.393197 75.232653 59.210884 137.229932 135.140136 138.62313 75.232653 0.696599 137.926531-59.210884 138.62313-135.140136 0.696599-75.232653-59.210884-137.229932-135.140136-138.62313zM9.055782 902.791837c-14.628571 45.278912 10.44898 93.344218 55.031293 107.972789 45.278912 14.628571 94.040816-10.44898 107.972789-55.727891L441.643537 115.635374c14.628571-45.278912-10.44898-93.344218-55.031292-107.972789C341.333333-6.965986 292.571429 18.111565 278.639456 63.390476z" fill="#d81e06" p-id="2137"></path></svg>