<?xml version="1.0" standalone="no"?><!DOCTYPE svg PUBLIC "-//W3C//DTD SVG 1.1//EN" "http://www.w3.org/Graphics/SVG/1.1/DTD/svg11.dtd"><svg t="1724138407883" class="icon" viewBox="0 0 1393 1024" version="1.1" xmlns="http://www.w3.org/2000/svg" p-id="1974" xmlns:xlink="http://www.w3.org/1999/xlink" width="43.53125" height="32"><path d="M423.16548437 202.33442794v583.33479708H30.04855637z" fill="#D40000" p-id="1975"></path><path d="M1029.48493994 214.22304405v576.20162673h-190.21786794V214.22304405zM1069.90623744 214.22304405h-6.34059549l-1.58514859 197.35103942h0.79257373v-0.79257485q4.7554469-0.79257486 9.51089379-0.79257486l40.42129636-193.38816626c-15.85148928-1.58514859-30.9104037-2.37772345-42.7990198-2.37772345z m73.7094235 5.54802176l-56.27278564 191.01044281q7.92574407 1.58514859 14.26633956 3.17029831l91.93863737-181.49955015q-23.77723335-8.71831893-49.93219129-12.68119097z m80.84259498 25.36238193l-109.37527523 174.36637981q4.7554469 2.37772345 10.30346866 5.54802176L1266.46470087 270.49583082q-19.81436131-14.26634069-42.00644495-25.36238308z m68.16140288 46.76189298l-157.7223168 140.28567779q5.54802062 5.54802062 10.30346866 11.09604239l186.25499592-107.79012551q-17.43663787-23.77723335-38.83614778-43.59159467z m53.10248733 65.78367944l-193.38816626 95.10893454q3.17029831 4.7554469 6.34059663 10.30346752l211.61737784-50.72476502q-9.51089379-29.32525511-24.56980821-54.68763704z m32.49555342 84.01289216l-216.37282588 31.70297856q3.96287203 9.51089379 4.75544689 20.60693504h217.95797448q-0.79257486-26.94753166-6.34059549-52.3099136z m-211.61737899 69.74655146c-4.7554469 46.76189298-43.59159467 83.2203173-91.93863622 83.22031729q-6.34059549 0-11.88861725-0.79257371v-3.96287205h-0.79257373v199.72876175c16.64406301 0 25.36238194-0.79257486 38.04357291-0.79257487 154.55201849 0 280.57135559-123.64161479 284.53422877-277.40105841z" fill="#00AA00" p-id="1976"></path><path d="M752.08388152 202.33442794v583.33479708H358.96695352z" fill="#D40000" p-id="1977"></path></svg>