<?xml version="1.0" standalone="no"?><!DOCTYPE svg PUBLIC "-//W3C//DTD SVG 1.1//EN" "http://www.w3.org/Graphics/SVG/1.1/DTD/svg11.dtd"><svg t="1724138400019" class="icon" viewBox="0 0 1914 1024" version="1.1" xmlns="http://www.w3.org/2000/svg" p-id="1806" xmlns:xlink="http://www.w3.org/1999/xlink" width="59.8125" height="32"><path d="M1697.734579 289.016822V326.340187c0 31.581308-9.570093 44.02243-9.570093 44.02243s7.656075 6.699065 7.656075 18.183177v104.314019c0 10.527103-2.871028 13.398131-13.398131 17.226168 0 0-194.272897 73.68972-201.928972 73.68972h-39.237383c-3.828037 0-2.871028 14.35514-10.527103 17.226168l-122.497196 44.02243c-7.656075 2.871028-10.527103 3.828037-10.527103-6.699065V487.117757c0-11.484112-22.968224-6.699065-22.968224 6.699065v155.035514c0 11.484112-2.871028 11.484112-14.355141 15.31215L1090.033645 727.327103c0 109.099065-54.549533 178.003738-151.207477 224.897196l-102.4 36.366355c-4.785047 1.914019-12.441121 0-12.441121-10.527103V857.480374c0-6.699065 0.957009-11.484112 13.398131-16.269159 0 0 44.979439-12.441121 64.119626-21.054206 8.613084-4.785047 22.011215-11.484112 27.753271-23.925233 5.742056-12.441121 0-11.484112-11.484112-7.656075 0 0-36.366355 19.140187-59.33458 19.140187 0 0-22.011215 1.914019-27.753271-0.957009-2.871028 1.914019-1.914019 10.527103-9.570093 14.35514l-123.454206 47.850467c-4.785047 1.914019-10.527103 0.957009-10.527103-9.570093V705.315888c0-11.484112-28.71028 0.957009-28.71028 13.398131v159.82056l-378.975701 141.637384c-12.441121 3.828037-18.183178 0-18.183178-19.140187V553.151402c0-7.656075 1.914019-13.398131 11.484113-17.226168l211.499065-78.474767V200.014953l202.885981-73.689719c41.151402-13.398131 106.228037 0.957009 106.228038 67.947663v82.302804c0 81.345794-40.194393 130.153271-99.528972 156.949533l-75.603739 27.753271c-10.527103 3.828037-18.183178 6.699065-18.183177 16.269159v91.872897c0 14.35514 3.828037 21.054206 18.183177 15.312149l105.271028-39.237383c20.097196-7.656075 46.893458-9.570093 68.904673 2.871028 2.871028 1.914019 2.871028 2.871028 12.441122-1.914019 17.226168-18.183178 25.839252-43.065421 94.743925-62.205607l444.052336-163.648598c10.527103-3.828037 49.764486-1.914019 59.33458 7.656075 2.871028 2.871028 3.828037 1.914019 13.398131-2.871028 8.613084-4.785047-0.957009-28.71028 86.130841-62.205608l101.442991-35.409346c27.753271-11.484112 93.786916-3.828037 93.786915 61.248598zM601.958879 347.394393c0 11.484112 3.828037 11.484112 13.39813 7.656074l44.02243-15.312149c9.570093-3.828037 18.183178-10.527103 18.183178-18.183178v-68.904673c0-13.398131-4.785047-15.31215-19.140187-10.527103l-44.979439 17.226169c-8.613084 3.828037-11.484112 6.699065-11.484112 11.484112v76.560748z m-78.474767 256.478504c0-10.527103-3.828037-11.484112-11.484112-9.570093l-108.142056 40.194392c-12.441121 7.656075-6.699065 24.882243 4.785047 23.925234l77.517757-26.796262c8.613084-2.871028 12.441121-4.785047 12.441121 8.613084v116.755141c0 6.699065-10.527103 11.484112-10.527103 11.484112l-84.216822 31.581308c-12.441121 8.613084-9.570093 27.753271 2.871028 26.796262l108.142056-38.280374c5.742056-1.914019 7.656075-4.785047 7.656075-8.613084 0-4.785047 0.957009-164.605607 0.957009-176.08972z m424.91215 11.484112c0-6.699065-3.828037-8.613084-7.656075-7.656074l-20.097196 10.527102c-2.871028 1.914019-3.828037 3.828037-3.828038 5.742056v11.484113c0 4.785047 5.742056 4.785047 10.527103 2.871028l15.31215-8.613084c3.828037-1.914019 5.742056-3.828037 5.742056-4.785047v-9.570094z" fill="#FF0000" p-id="1807"></path><path d="M1021.128972 148.336449c6.699065-2.871028 97.614953-35.409346 97.614953-35.409346 9.570093-3.828037 7.656075-24.882243 7.656075-29.66729 0-64.119626-56.463551-93.786916-96.657944-79.431776l-93.786916 32.538318C879.491589 57.420561 823.028037 88.04486 810.586916 181.831776v181.831775c0 111.970093 87.08785 91.872897 121.540187 78.474767 34.452336-12.441121 150.250467-54.549533 159.820561-58.37757 26.796262-10.527103 46.893458-38.280374 43.06542-73.68972-0.957009-11.484112-8.613084-59.334579-9.570093-66.033645-0.957009-6.699065-0.957009-13.398131-8.613084-10.527103l-94.743926 35.409346c-8.613084 2.871028-14.35514 4.785047-14.35514 15.31215 0 11.484112 0.957009 20.097196-15.312149 25.839252 0 0-44.979439 15.31215-49.764486 17.226168-5.742056 1.914019-14.35514 2.871028-14.355141-13.398131V156.949533c0-7.656075 2.871028-10.527103 12.441122-14.35514 10.527103-3.828037 53.592523-19.140187 53.592523-19.140187 8.613084-2.871028 15.31215-2.871028 15.31215 6.699065v9.570093c0 12.441121 4.785047 10.527103 11.484112 8.613085z" fill="#FF0000" p-id="1808"></path><path d="M467.020561 513.914019l-156.949533 54.549532c-6.699065 1.914019-8.613084 7.656075-8.613084 16.269159v367.491589c0 12.441121 3.828037 13.398131 12.441121 10.527103 0 0 195.229907-70.818692 200.971963-72.73271 4.785047-1.914019 6.699065-0.957009 6.699065-7.656075v-33.495327c0-12.441121-1.914019-16.269159-12.441121-12.441122l-143.551402 51.678505c-9.570093 3.828037-13.398131 5.742056-13.398131-7.656075V783.790654c0-9.570093 1.914019-9.570093 5.742056-10.527103 3.828037-1.914019 83.259813-30.624299 83.259813-30.624299 5.742056-2.871028 13.398131-5.742056 13.398131-12.441121V698.616822c0-6.699065-2.871028-11.484112-17.226168-5.742056l-71.775701 25.839253c-11.484112 4.785047-13.398131 1.914019-13.398131-8.613084v-94.743926c0-4.785047-0.957009-6.699065 9.570094-10.527102l111.013084-42.108412c8.613084-2.871028 10.527103-0.957009 10.527103-9.570093v-31.581309c0-9.570093-2.871028-12.441121-16.269159-7.656074zM566.549533 654.594393v204.8c0 7.656075 0.957009 8.613084 5.742056 7.656074l36.366355-12.441121c5.742056-1.914019 5.742056-2.871028 5.742056-7.656075V691.917757c0-7.656075 2.871028-12.441121 9.570093-14.35514l92.829907-35.409346c4.785047-0.957009 14.35514 0 14.35514 14.35514v141.637383c0 9.570093 2.871028 9.570093 8.613084 8.613085L775.17757 794.317757c5.742056-2.871028 7.656075-2.871028 7.656075-12.441121v-162.691589c0-45.936449-39.237383-38.280374-46.893458-35.409346l-159.820561 59.334579c-6.699065 2.871028-9.570093 3.828037-9.570093 11.484113zM1043.140187 485.203738v277.532711c0 48.807477-61.248598 123.454206-94.743925 137.809345L880.448598 928.299065c-5.742056 2.871028-11.484112 1.914019-11.484112-7.656074v-42.108412l45.936449-19.140186c66.033645-29.66729 78.474766-81.345794 78.474766-127.282243 0-13.398131-6.699065-13.398131-21.054206-8.613085l-105.271028 36.366356c-22.968224 6.699065-40.194393 0-40.194392-39.237384V589.517757c0-18.183178 13.398131-31.581308 31.581308-39.237383l169.390654-72.73271c9.570093-3.828037 15.31215-2.871028 15.31215 7.656074z m-49.764486 71.775701c0-17.226168-8.613084-12.441121-17.226168-9.570093 0 0-67.947664 25.839252-82.302804 30.624299-12.441121 4.785047-21.054206 10.527103-21.054206 22.968224V679.476636c0 22.968224 14.35514 18.183178 19.140187 17.226168l86.130841-29.66729c12.441121-4.785047 15.31215-4.785047 15.31215-15.31215v-94.743925zM1089.076636 465.106542v202.885981c0 10.527103 3.828037 11.484112 10.527102 8.613084l31.581309-10.527102c5.742056-1.914019 8.613084-4.785047 8.613084-10.527103V452.665421c0-11.484112-3.828037-12.441121-14.35514-8.613085l-31.581309 11.484113c-2.871028 1.914019-4.785047 1.914019-4.785046 9.570093zM1182.863551 429.697196v204.8c0 7.656075 0.957009 8.613084 5.742056 7.656075l36.366356-12.441121c5.742056-1.914019 5.742056-2.871028 5.742056-8.613085V467.020561c0-7.656075 2.871028-12.441121 9.570093-14.35514l85.173832-30.6243c4.785047-1.914019 14.35514-0.957009 14.35514 13.398131v141.637384c0 10.527103 2.871028 10.527103 8.613084 8.613084l35.409346-12.441122c5.742056-1.914019 7.656075-1.914019 7.656075-11.484112V398.115888c0-45.936449-39.237383-37.323364-46.893458-34.452337l-153.121495 54.549533c-5.742056 1.914019-8.613084 3.828037-8.613085 11.484112zM1655.626168 434.482243v32.538318c0 9.570093-3.828037 9.570093-15.312149 14.35514l-155.992524 53.592523c-15.31215 5.742056-46.893458 3.828037-46.893458-36.366355V386.631776c0-40.194393 43.065421-71.775701 64.119627-79.431776l105.271028-36.366355c20.097196-7.656075 47.850467-2.871028 47.850467 28.71028v38.280374c0 31.581308-27.753271 56.463551-47.850467 64.119626l-110.056075 40.194393c-17.226168 5.742056-10.527103 39.237383 7.656075 32.538318l133.024299-47.850468c8.613084-2.871028 18.183178-5.742056 18.183177 7.656075z m-167.476635-58.37757c0 9.570093 3.828037 18.183178 12.441121 14.35514l92.829907-36.366355c5.742056-1.914019 6.699065-3.828037 6.699065-13.398131 0-14.35514-11.484112-13.398131-20.097196-10.527103l-80.388785 31.581309c-8.613084 3.828037-11.484112 10.527103-11.484112 14.35514z" fill="#FFFFFF" p-id="1809"></path><path d="M450.751402 314.856075V334.953271C-127.282243 559.850467-29.66729 761.779439 239.252336 834.51215v16.269158c-357.921495-80.388785-321.55514-354.093458 211.499066-535.925233zM953.181308 196.186916v18.183177c1253.682243-153.121495 1188.605607 397.158879 148.336449 603.872898l-12.441121 24.882243C2231.745794 623.013084 2181.981308 22.968224 953.181308 196.186916z" fill="#FF0000" p-id="1810"></path><path d="M1049.839252 339.738318l-191.401869 210.542056c-3.828037 4.785047-1.914019 6.699065 3.828038 4.785047L1110.130841 399.072897c4.785047-2.871028 5.742056-3.828037 9.570094-2.871028 2.871028 0.957009 92.829907 65.076636 92.829906 65.076636 5.742056 4.785047 8.613084 2.871028 6.699066-1.914019l-45.936449-101.442991c-2.871028-5.742056-3.828037-9.570093-0.957009-12.441121l187.573831-204.8c4.785047-6.699065 1.914019-9.570093-5.742056-5.742056l-232.553271 144.508411c-5.742056 3.828037-8.613084 2.871028-11.484112 0.957009l-86.130841-58.37757c-9.570093-4.785047-11.484112-2.871028-9.570093 6.699066l39.237383 96.657944c1.914019 4.785047 0.957009 9.570093-3.828038 14.35514z" fill="#FF0000" p-id="1811"></path></svg>