<?xml version="1.0" standalone="no"?><!DOCTYPE svg PUBLIC "-//W3C//DTD SVG 1.1//EN" "http://www.w3.org/Graphics/SVG/1.1/DTD/svg11.dtd"><svg t="1724138241758" class="icon" viewBox="0 0 1302 1024" version="1.1" xmlns="http://www.w3.org/2000/svg" p-id="1476" xmlns:xlink="http://www.w3.org/1999/xlink" width="40.6875" height="32"><path d="M691.02614469 239.81960281l-0.80151282 735.03179063-196.93581187-64.04909532V46.84340094l251.37702938 66.460485c160.90883813 43.2457275 259.37845687 127.31037938 257.77714312 274.63802718-1.5996 171.35590687-80.855175 240.20722875-235.36389844 195.36875157V245.41306625c0-40.83605062-76.05294938-43.22688844-76.05294937-5.59346344z" fill="#DE0029" p-id="1477"></path><path d="M402.81891594 768.2614625l-92.86759219 31.23331031c-60.05009437 20.82220687-111.28012313-28.01869594-56.0408175-48.04624125l44.82820125-16.00285406-168.92225344-53.65683094c-52.04010375 17.62300594-100.87758188 55.25471906-97.66639312 108.10147313 3.20262563 53.6414175 125.68508906 66.460485 220.1591325 81.673815 88.05851531 14.40496687 168.11560313 6.40011375 240.97620094-19.22260688v-55.25300625L402.81891594 768.25974969zM691.82594469 974.84968063l172.12316718-60.0586575-173.72276718-55.23930469v111.2869725l1.5996 4.01098968z" fill="#F3C202" p-id="1478"></path><path d="M1149.753515 813.91515312l3.19920094-0.80493843c75.25486125-26.41567031 107.27940938-63.26128406 99.27798187-97.68009375-12.81050438-57.64726875-104.87658375-88.88057906-246.58165406-99.29168344-101.67053156-7.20162656-201.73975125 15.21161719-299.40956906 48.83747812l-16.01313 5.61059063 175.32579281 54.44806781 102.47204531-34.43593687c107.27769656-20.01213094 150.51657375 15.21504281 47.23787719 48.04624125l-51.24030375 17.60587968 185.73175875 57.664395z m-656.464695-254.61733312l-77.66453813 26.4139575 77.66453813 24.02312062v-50.43707812z" fill="#326DB3" p-id="1479"></path><path d="M863.94739906 914.79444781l285.80440313-100.87929469-185.73518438-57.664395-273.79198594 93.68109375v9.62157844l173.72276719 55.23930563zM493.28882 737.8348025l-90.46647844 30.42666 90.46647844 28.82363438v-59.25029438z m196.93581187 47.25500344v-114.5050125l175.32579282 54.44806781-175.32579282 60.05694469zM298.74042031 735.44739031l194.54497406-69.66139781v-56.04938156l-77.66111249-24.02312063L133.82059344 680.99589687c-0.80151281 0-2.40111281 0.79123688-4.00071375 0.79123688l168.92054062 53.65683094z" fill="#00AA9E" p-id="1480"></path></svg>