<?xml version="1.0" standalone="no"?><!DOCTYPE svg PUBLIC "-//W3C//DTD SVG 1.1//EN" "http://www.w3.org/Graphics/SVG/1.1/DTD/svg11.dtd"><svg t="1724138427058" class="icon" viewBox="0 0 1432 1024" version="1.1" xmlns="http://www.w3.org/2000/svg" p-id="2298" xmlns:xlink="http://www.w3.org/1999/xlink" width="44.75" height="32"><path d="M1166.500699 264.951049q-13.605594 0-27.211189 1.432168-12.88951 1.432168-25.77902 4.296503-12.88951 2.864336-25.779021 6.444756-12.88951 4.296503-25.062938 9.30909c-23.630769 10.025175-45.829371 23.630769-65.163636 40.1007-20.05035 16.46993-37.236364 35.804196-50.841958 58.002797-14.321678 21.482517-25.062937 44.397203-32.93986 69.46014-7.160839 25.062937-10.741259 50.125874-10.741259 75.904895q25.062937 0.716084 50.125874 5.012587 24.346853 5.012587 47.261539 13.605595 23.630769 8.593007 44.397203 21.482517 20.766434 12.88951 38.668531 29.359441 20.05035 17.902098 35.804196 40.100699 15.037762 21.482517 25.062937 45.829371 10.025175 24.346853 14.321678 50.125874 3.58042 25.779021 2.148252 51.558042l5.728671 5.728671c25.779021 0 51.558042-3.58042 76.620979-11.457343 24.346853-7.876923 47.977622-18.618182 69.46014-33.655944 21.482517-14.321678 40.816783-32.223776 57.286713-52.274125s29.359441-42.248951 39.384616-66.595805c10.025175-24.346853 15.753846-49.40979 18.618182-75.188811 2.148252-25.779021 0.716084-52.274126-4.296504-77.337063-5.728671-25.779021-14.321678-50.125874-26.495105-73.040559-12.88951-22.914685-28.643357-43.681119-46.545454-62.299301q-18.618182-17.902098-40.1007-32.223776-21.482517-13.605594-45.113286-23.630769t-48.693707-15.037763q-25.062937-4.296503-50.125874-5.012587z" fill="#EC1D23" p-id="2299"></path><path d="M642.327273 3.58042q-12.88951 0-26.495105 0.716083-12.88951 1.432168-25.779021 4.296504-13.605594 2.864336-25.779021 6.444755-12.88951 4.296503-25.062937 9.309091C515.58042 34.372028 493.381818 47.977622 474.047552 64.447552c-20.05035 16.46993-37.236364 35.804196-51.558042 58.002798-13.605594 21.482517-25.062937 44.397203-32.223776 69.46014-7.160839 25.062937-10.741259 50.125874-10.741258 75.904895q25.062937 0.716084 49.40979 5.012587 25.062937 5.012587 47.977622 13.605594 23.630769 8.593007 44.397203 21.482518 20.766434 12.88951 38.668531 29.35944 20.05035 17.902098 35.088112 40.1007 15.753846 21.482517 25.779021 45.82937 10.025175 24.346853 13.605595 50.125875 4.296503 25.779021 2.864335 51.558041l5.728672 5.728672c25.779021 0 51.558042-3.58042 76.620979-11.457343 24.346853-7.876923 47.977622-18.618182 69.46014-33.655944 21.482517-14.321678 40.816783-32.223776 57.286713-52.274126s29.359441-42.248951 39.384615-66.595804c9.309091-24.346853 15.753846-49.40979 17.902098-75.188811 2.864336-25.779021 1.432168-52.274126-4.296503-77.337063-5.012587-25.779021-13.605594-50.125874-26.495105-73.04056-12.173427-22.914685-27.927273-43.681119-46.545455-62.2993q-17.902098-17.902098-39.384615-32.223776-21.482517-13.605594-45.113287-23.63077t-48.693706-15.037762Q668.106294 3.58042 642.327273 3.58042z" fill="#43B9E9" p-id="2300"></path><path d="M310.064336 757.616783c-166.847552 0-300.755245-68.027972-300.755245-151.80979s133.907692-151.093706 300.755245-151.093706c166.131469 0 300.755245 67.311888 300.755244 151.093706 0 83.781818-134.623776 151.80979-300.755244 151.80979z" fill="#7BC049" p-id="2301"></path><path d="M833.521678 1021.851748c-166.847552 0-300.755245-68.027972-300.755244-151.80979s133.907692-151.093706 300.755244-151.093706c166.131469 0 300.755245 67.311888 300.755245 151.093706 0 83.781818-134.623776 151.80979-300.755245 151.80979z" fill="#EEE816" p-id="2302"></path></svg>