<?xml version="1.0" standalone="no"?><!DOCTYPE svg PUBLIC "-//W3C//DTD SVG 1.1//EN" "http://www.w3.org/Graphics/SVG/1.1/DTD/svg11.dtd"><svg t="1724138366949" class="icon" viewBox="0 0 1588 1024" version="1.1" xmlns="http://www.w3.org/2000/svg" p-id="1643" xmlns:xlink="http://www.w3.org/1999/xlink" width="49.625" height="32"><path d="M1039.926892 232.339353c122.714391 7.969549 251.02493 111.478438 286.68152 231.251875C1255.295233 224.040385 998.626528 16.931324 753.261248 1.055727c-245.337498-15.931161-434.435695 154.152041-315.182184 405.026153 44.050811 92.606323 111.335557 176.012737 204.795194 212.288475-21.193921 6.882071-45.285139 10.053221-71.979954 8.294999-122.666764-7.878265-251.02493-111.478438-286.68152-231.251875 71.317148 239.59847 328.02951 446.659904 573.386853 462.614879 245.385125 15.883534 423.402156-171.46041 315.134557-405.026153-42.911737-92.753172-111.287931-176.060364-204.747567-212.288475 21.193921-6.882071 45.285139-10.096879 71.979954-8.350563z m15.978788 210.248461c26.17489 71.789447 16.879728 136.085612-18.872115 178.620304 16.312175-23.519696 19.773055-56.806853 6.354207-93.789055-25.984382-71.317148-104.739247-129.068599-176.10799-129.068598-71.221894 0-108.017558 57.75542-82.033176 129.068598 25.889129 71.265552 104.743216 129.020972 176.012737 129.020972 20.721622 0 38.407037-4.881746 52.587913-13.466474-27.079799 20.102474-62.827673 31.671815-105.552871 31.671814-128.167659 0-269.944672-103.885934-316.555423-232.053592-46.658378-128.215285 19.439668-232.152815 147.607326-232.152815 128.215285 0 269.897045 103.93753 316.559392 232.152815" fill="#CE001D" p-id="1644"></path><path d="M642.957605 943.923272l30.393829-35.847096h-44.856498l-11.192295 18.018802-15.693027 14.792087h-47.702198l-39.637396 24.420636-10.906534 40.732811c-2.421028 8.965743 5.496925 16.216922 17.637787 16.216922h77.242714l32.906143 0.805686 17.403622-65.86388c1.468493-5.401672-0.845376-10.23976-5.596147-13.224372z m-52.445033 65.764658l-16.645563 0.400859h-21.951981c-2.988581 0-4.976999-1.893165-4.409447-4.032401l10.716028-40.732812 19.820682-12.188489h22.190115c2.940954 0 4.980968 1.706627 4.365789 4.032402l-14.089592 52.536317m816.95819 12.458374l-27.167114-0.14288 18.49507-68.991373h-16.550309c-15.081817 0-30.112037 9.152281-33.049023 20.292981l-4.409447 16.216922c-2.798074 11.291518 7.112267 20.43983 22.186146 20.43983h12.950518l-16.169295 12.18452h-27.456844c-24.325383 0-40.443082-14.645238-35.65659-32.62435l4.552327-16.212953c5.024626-17.923548 28.591949-32.48147 52.869705-32.48147h44.003185l44.570736-1.651062-21.999607 82.314967-17.165489 0.670744m-312.856409-106.191864h-60.930539c-6.02082 0-12.613161 5.457236-14.462668 12.378996l-1.754254 6.397865c-1.754253 6.92176 1.563746 12.382965 7.67982 12.382965h49.742213c15.129443 0 23.90071 13.9864 19.110249 31.386055l-3.46088 12.3274c-4.738866 17.355996-21.193921 31.342396-36.319396 31.342396h-168.003499l21.721785-18.733203h123.948719c6.068447 0 12.470281-5.735059 14.367415-12.605224l1.706626-6.211327c1.893165-6.92176-1.567715-12.565535-7.636162-12.565535h-49.78587c-15.125474 0-23.424442-13.9864-18.919742-31.104262l3.46088-12.609192c4.695208-17.117862 20.955787-31.104262 36.323365-31.104262h60.362986l46.658378-2.84967-23.805457 21.574935m-275.302686 106.160114h-27.595755l15.220728-56.85448 39.641364-24.464294H912.723676c18.20534 0 29.917561 10.954162 26.313801 24.464294l-0.103191 0.285761-19.586517 12.192458h-27.643382l3.369595-12.513939c1.988418-6.866195-4.266567-12.283743-13.279936-12.283743h-11.093073l-19.820682 12.283743-14.843683 56.191673-16.736848 0.674713m-352.259639 0.039689h-27.643382l15.220728-56.858448c1.849507-6.866195-4.21894-12.283743-13.228341-12.283743h-27.643382l-13.089429 49.64299-21.765443 19.487294h-27.643382l22.285368-83.172249 43.292752 1.857445h55.429644c18.209309 0 29.965188 10.954162 26.31777 24.468263l-14.792087 56.191673-16.740816 0.674713m1088.986534 0h-27.691009l15.268355-56.858449c1.849507-6.866195-4.21894-12.283743-13.22834-12.283742h-27.691009l-13.041803 49.64299-21.8091 19.487294h-27.599725l22.241711-83.172249 43.340378 1.857444h55.429645c18.256936 0 29.965188 10.954162 26.361428 24.468263l-14.843683 56.191674-16.736848 0.670744m-860.536702-16.22486l3.889521-14.796056h55.0526l39.641364-24.416667 2.373401-9.680145c2.41706-8.965743-5.500894-16.216922-17.641756-16.216921h-77.052207l-39.641364 24.468263-3.742672 13.9864c-0.14288 0.404828-0.1786 0.809655-0.285761 1.210514l-6.782848 25.41683c-2.41706 8.910178 5.500894 16.216922 17.641756 16.216922h74.920908l19.820682-12.192458h-63.823866c-2.940954 0-4.980968-1.857445-4.365789-4.032402z m10.624743-40.637558l19.816713-12.283742h29.258724c2.889359 0 4.976999 1.706627 4.36182 4.032401l-2.659162 9.676176-19.773055 12.192458h-34.660396l3.651387-13.613324m-403.240148 56.850511H225.584207c-12.140862 0-20.011189-7.302774-17.641757-16.216922l10.906535-40.641526 39.641364-24.464295h77.052207c12.140862 0 20.011189 7.259116 17.641757 16.216922l-10.716028 40.681216z m-4.552328-24.420636l10.858908-40.681216c0.658837-2.325775-1.377208-4.032401-4.365789-4.032401h-22.186146l-19.777024 12.283742-10.716027 40.637558c-0.563584 2.174957 1.424835 4.032401 4.365789 4.032402h21.951981l19.868308-12.232147m948.685952 24.412698h-148.984535l18.586355-69.562894 19.157876-11.799537 27.123456-1.801881-19.062622 71.360806h10.477894l19.157875-11.759848 12.327401-45.995572 19.110249-11.799537 27.167115-1.80188-15.978788 59.600958-7.632193 11.763817h14.982594l19.296787-11.763817 12.140863-45.991603 19.153907-11.799537 27.171083-1.805849-16.026415 59.604927-38.168902 23.567323m-1092.002898 0H0.710353l25.035815-112.236498 19.868309-14.696833 28.020428-1.897134-25.508115 114.185227h10.906535l19.820682-14.700802 18.538728-82.886489 19.820682-14.700802 28.072023-1.893165-22.24171 99.480456-7.870327 14.696833h15.506488l20.01119-14.696833 18.300593-82.886489 19.820682-14.700802 28.072024-1.897134-22.237742 99.480456-39.641364 29.353978" p-id="1645"></path></svg>